<svg width="92" height="92" viewBox="0 0 92 92" fill="none" xmlns="http://www.w3.org/2000/svg">
<path fill-rule="evenodd" clip-rule="evenodd" d="M16.8896 49.2705C16.4796 30.1305 27.8998 12.7409 46.009 6.17065C64.0507 12.7164 75.2487 30.1896 74.8813 49.2591C74.6836 59.5204 74.9718 69.6346 76.1875 82.4905C76.2895 83.5692 75.4823 84.5301 74.3943 84.6115C52.5478 86.2462 39.4585 86.2251 17.6076 84.6085C16.5258 84.5284 15.7193 83.5771 15.8107 82.5038C16.9264 69.4086 17.1049 59.3211 16.8896 49.2705ZM46.3984 51.9846C46.9479 51.9846 47.4431 51.6556 47.6528 51.1512L58.8248 24.2713C59.1249 23.5491 58.9624 22.7126 58.3775 22.1901C54.8248 19.016 50.6587 17.1892 46.2037 17.1892C41.8764 17.1892 37.8217 18.9127 34.337 21.9203C33.7349 22.4399 33.5635 23.2884 33.8678 24.0206L45.144 51.1512C45.3536 51.6556 45.8488 51.9846 46.3984 51.9846ZM53.1644 51.9846C51.778 51.9846 50.8359 50.5866 51.3648 49.3141L60.0799 28.3455C60.6451 26.9855 62.4567 26.7405 63.2562 27.9793C67.005 33.7881 69.4075 41.5096 69.7241 50.0518C69.7637 51.1187 68.8882 51.9846 67.813 51.9846H53.1644ZM32.5657 27.9818C32.005 26.6329 30.2131 26.3776 29.4029 27.5951C25.5101 33.4455 23.0069 41.3199 22.6832 50.0517C22.6437 51.1186 23.5191 51.9846 24.5943 51.9846H39.6324C41.0187 51.9846 41.9608 50.5866 41.4319 49.3141L32.5657 27.9818ZM42.1154 78.7655V60.9655C41.844 60.9302 41.5661 60.892 41.2812 60.851C40.0868 60.6793 39.0006 61.585 39.0006 62.7833V73.6351C39.0006 75.8605 40.2629 77.7931 42.1154 78.7655ZM47.9558 61.2678C46.7437 61.3321 45.4877 61.3039 44.0622 61.1797V79.3833C44.317 79.417 44.5769 79.4344 44.8409 79.4344H47.1771C47.4411 79.4344 47.701 79.417 47.9558 79.3833V61.2678ZM49.9026 61.083V78.7655C51.7551 77.7931 53.0174 75.8605 53.0174 73.6351V62.9335C53.0174 61.6861 51.8463 60.775 50.6067 60.9775C50.3705 61.016 50.1361 61.0512 49.9026 61.083ZM22.7266 62.6591C24.5308 63.0797 25.8956 63.4788 28.0985 64.3563C25.7751 64.5365 24.4045 64.8598 22.6475 65.762V71.7021C22.6475 74.6914 25.088 77.1147 28.0985 77.1147C31.109 77.1147 33.5495 74.6914 33.5495 71.7021V63.5831C33.5495 60.5938 31.109 58.1705 28.0985 58.1705C25.4053 58.1705 23.1682 60.11 22.7266 62.6591ZM64.3088 64.3563C62.1059 63.4788 60.7411 63.0797 58.9369 62.6591C59.3785 60.11 61.6156 58.1705 64.3088 58.1705C67.3193 58.1705 69.7598 60.5938 69.7598 63.5831V71.7021C69.7598 74.6914 67.3193 77.1147 64.3088 77.1147C61.2983 77.1147 58.8578 74.6914 58.8578 71.7021V65.762C60.6148 64.8598 61.9854 64.5365 64.3088 64.3563Z" fill="#698044"/>
</svg>
