<svg width="64" height="64" viewBox="0 0 64 64" fill="none" xmlns="http://www.w3.org/2000/svg">
<path d="M9.68 9.68002C8.64 10.72 8.64 12.4 9.68 13.44L19.44 23.2L18.6667 24H10.6667C9.2 24 8 25.2 8 26.6667V37.3334C8 38.8 9.2 40 10.6667 40H18.6667L27.44 48.7734C29.12 50.4534 32 49.2534 32 46.88V35.76L43.1467 46.9067C41.84 47.8934 40.4267 48.72 38.88 49.3334C37.92 49.7334 37.3333 50.7467 37.3333 51.7867C37.3333 53.7067 39.28 54.9334 41.04 54.2134C43.1733 53.3334 45.1733 52.16 46.96 50.72L50.5333 54.2934C51.5733 55.3334 53.2533 55.3334 54.2933 54.2934C55.3333 53.2534 55.3333 51.5734 54.2933 50.5334L13.4667 9.68002C12.4267 8.64002 10.7467 8.64002 9.68 9.68002ZM50.6667 32C50.6667 34.1867 50.2667 36.2934 49.5733 38.24L53.6533 42.32C55.1467 39.2 56 35.7067 56 32C56 21.7867 49.6 13.04 40.5867 9.60002C39.0133 8.98669 37.3333 10.2134 37.3333 11.8934V12.4C37.3333 13.4134 38 14.2934 38.96 14.6667C45.8133 17.44 50.6667 24.16 50.6667 32ZM27.44 15.2267L26.9867 15.68L32 20.6934V17.0934C32 14.72 29.12 13.5467 27.44 15.2267ZM44 32C44 27.28 41.28 23.2267 37.3333 21.2534V26.0267L43.9467 32.64C43.9733 32.4267 44 32.2134 44 32Z" fill="#698044"/>
</svg>
