<svg width="64" height="64" viewBox="0 0 64 64" fill="none" xmlns="http://www.w3.org/2000/svg">
<path d="M41.3334 37.3334H39.2267L38.48 36.6134C41.68 32.88 43.3334 27.7867 42.4267 22.3734C41.1734 14.96 34.9867 9.04002 27.52 8.13335C16.24 6.74669 6.74669 16.24 8.13335 27.52C9.04002 34.9867 14.96 41.1734 22.3734 42.4267C27.7867 43.3334 32.88 41.68 36.6134 38.48L37.3334 39.2267V41.3334L48.6667 52.6667C49.76 53.76 51.5467 53.76 52.64 52.6667C53.7334 51.5734 53.7334 49.7867 52.64 48.6934L41.3334 37.3334ZM25.3334 37.3334C18.6934 37.3334 13.3334 31.9734 13.3334 25.3334C13.3334 18.6934 18.6934 13.3334 25.3334 13.3334C31.9734 13.3334 37.3334 18.6934 37.3334 25.3334C37.3334 31.9734 31.9734 37.3334 25.3334 37.3334Z" fill="#698044"/>
</svg>
