<svg width="64" height="64" viewBox="0 0 64 64" fill="none" xmlns="http://www.w3.org/2000/svg">
<path d="M10.6667 48H21.3333C22.8 48 24 46.8 24 45.3333C24 43.8667 22.8 42.6667 21.3333 42.6667H10.6667C9.2 42.6667 8 43.8667 8 45.3333C8 46.8 9.2 48 10.6667 48ZM8 18.6667C8 20.1333 9.2 21.3333 10.6667 21.3333H53.3333C54.8 21.3333 56 20.1333 56 18.6667C56 17.2 54.8 16 53.3333 16H10.6667C9.2 16 8 17.2 8 18.6667ZM10.6667 34.6667H37.3333C38.8 34.6667 40 33.4667 40 32C40 30.5333 38.8 29.3333 37.3333 29.3333H10.6667C9.2 29.3333 8 30.5333 8 32C8 33.4667 9.2 34.6667 10.6667 34.6667Z" fill="#698044"/>
</svg>
