<svg width="64" height="64" viewBox="0 0 64 64" fill="none" xmlns="http://www.w3.org/2000/svg">
<path d="M8 26.6666V37.3333C8 38.7999 9.2 39.9999 10.6667 39.9999H18.6667L27.44 48.7733C29.12 50.4533 32 49.2533 32 46.8799V17.0933C32 14.7199 29.12 13.5199 27.44 15.1999L18.6667 23.9999H10.6667C9.2 23.9999 8 25.1999 8 26.6666ZM44 31.9999C44 27.2799 41.28 23.2266 37.3333 21.2533V42.7199C41.28 40.7733 44 36.7199 44 31.9999ZM37.3333 11.8666V12.3999C37.3333 13.4133 38 14.2933 38.9333 14.6666C45.8133 17.4133 50.6667 24.1599 50.6667 31.9999C50.6667 39.8399 45.8133 46.5866 38.9333 49.3333C37.9733 49.7066 37.3333 50.5866 37.3333 51.5999V52.1333C37.3333 53.8133 39.0133 54.9866 40.56 54.3999C49.6 50.9599 56 42.2399 56 31.9999C56 21.7599 49.6 13.0399 40.56 9.59992C39.0133 8.98659 37.3333 10.1866 37.3333 11.8666Z" fill="#698044"/>
</svg>
